<svg width="81" height="75" viewBox="0 0 81 75" fill="none" xmlns="http://www.w3.org/2000/svg">
<path d="M28.9947 74.0609C13.4393 74.0609 2.56911 64.1047 2.56911 49.8422V38.9422L1.09036 18.8734C0.955282 17.2172 1.44583 15.7422 2.46247 14.7109C3.29427 13.8672 4.4602 13.3797 5.8252 13.2922C5.96739 13.2859 6.10958 13.2797 6.24466 13.2797C9.13817 13.2797 11.1643 15.1859 11.399 18.1359C11.399 18.1609 11.4061 18.1922 11.4061 18.2172L14.1503 33.2109C14.2356 33.6609 14.6764 33.9984 15.1954 33.9984C22.2621 34.0297 31.6891 34.7984 39.7867 36.0047C39.8436 36.0109 39.9075 36.0172 39.9644 36.0172C40.2133 36.0172 40.455 35.9422 40.6469 35.7984C40.8886 35.6234 41.0237 35.3672 41.0308 35.0922L41.5569 5.74219C41.7062 3.36719 43.3272 0.929688 46.6046 0.929688C46.7112 0.929688 46.8179 0.929688 46.9316 0.935938C48.4317 1.00469 49.6758 1.57344 50.5218 2.56719C51.3465 3.54219 51.7518 4.87969 51.6593 6.32969L51.3252 36.9734C51.311 38.1859 51.4034 39.2609 51.6096 40.2672C52.5693 44.9734 55.0576 45.9859 56.6999 46.6609C57.4108 46.9547 57.8232 47.1297 58.008 47.4422C59.2593 49.5609 58.2213 55.1109 54.3254 60.7422C51.5669 64.7484 43.5547 74.0609 28.9947 74.0609Z" fill="url(#paint0_radial_118_974)"/>
<path d="M46.6192 1.875C46.7045 1.875 46.7969 1.875 46.8893 1.88125C47.9557 1.93125 48.8231 2.275 49.47 2.90625C50.2805 3.7 50.7 4.93125 50.6146 6.2875C50.6146 6.31875 50.6146 6.34375 50.6146 6.375L50.2805 36.975C50.2663 38.2437 50.3658 39.375 50.5862 40.4437C51.6455 45.625 54.5461 46.8125 56.2737 47.5187C56.5723 47.6437 56.9775 47.8062 57.0913 47.9C57.9871 49.4687 57.4468 54.4563 53.43 60.2688C50.7497 64.1313 43.0147 73.125 28.995 73.125C21.4307 73.125 15.0038 70.7813 10.404 66.35C6.03886 62.1438 3.643 56.2875 3.643 49.8438V38.9437C3.643 38.9062 3.643 38.8625 3.63589 38.825L2.15714 18.8063C2.04339 17.425 2.44862 16.1563 3.27331 15.3313C3.92737 14.6688 4.80894 14.3 5.90378 14.2375C6.02464 14.2313 6.13839 14.225 6.25214 14.225C9.03191 14.225 10.1978 16.375 10.34 18.2125C10.3471 18.2687 10.3542 18.325 10.3614 18.375L13.1056 33.3687C13.2691 34.275 14.1578 34.9437 15.2028 34.9437C22.2127 34.975 31.5757 35.7375 39.6235 36.9375C39.7444 36.9562 39.8582 36.9625 39.979 36.9625C40.4767 36.9625 40.9601 36.8125 41.344 36.5313C41.8203 36.1813 42.1047 35.6687 42.1118 35.1187L42.6379 5.80625C42.7588 3.98125 43.875 1.875 46.6192 1.875ZM46.6192 0C43.0005 0 40.7113 2.5 40.5051 5.73125L39.979 35.0813C32.4431 33.9625 22.9094 33.0938 15.21 33.0625L12.4657 18.0687C12.2027 14.825 9.8637 12.3375 6.24503 12.3375C6.08151 12.3375 5.918 12.3438 5.74737 12.35C1.85144 12.5875 -0.252939 15.5312 0.0243267 18.925L1.50308 38.9313V49.8313C1.50308 63.6688 11.8614 74.9875 28.995 74.9875C51.7379 74.9875 62.3878 52.8 58.9682 47C57.8804 45.1562 53.9632 46.4 52.6764 40.0938C52.4631 39.0688 52.3991 38.0187 52.4062 36.975L52.7403 6.375C52.9465 3.05 50.835 0.19375 46.996 0.00625014C46.868 1.43191e-07 46.74 0 46.6192 0Z" fill="#EDA600"/>
<path opacity="0.4" d="M28.8673 57.2008C39.6806 57.2008 48.4465 51.4728 48.4465 44.407C48.4465 37.3412 39.6806 31.6133 28.8673 31.6133C18.054 31.6133 9.28809 37.3412 9.28809 44.407C9.28809 51.4728 18.054 57.2008 28.8673 57.2008Z" fill="url(#paint1_radial_118_974)"/>
<path d="M33.5309 50.1391C32.1019 50.1391 30.872 49.7203 29.9762 48.9203C29.0022 48.0516 28.4761 46.7953 28.4975 45.3766L27.9287 32.2641C27.9643 29.6578 30.6445 27.4891 33.9006 27.4766C35.5784 27.4766 37.0927 28.0203 38.1947 29.0016C39.1829 29.8828 39.7232 31.0328 39.7018 32.2391L38.7847 45.2578C38.7421 48.1391 36.595 50.1266 33.5522 50.1391H33.5309Z" fill="url(#paint2_radial_118_974)"/>
<path d="M33.9222 26.5391V28.4141C35.2872 28.4141 36.5313 28.8578 37.4342 29.6578C38.2091 30.3516 38.6357 31.2453 38.6357 32.1828L37.7186 45.1953C37.7186 45.2266 37.7186 45.2578 37.7115 45.2891C37.683 47.2266 36.3891 49.1828 33.5241 49.1953C32.3652 49.1953 31.4268 48.8766 30.7301 48.2578C29.9552 47.5703 29.5428 46.5516 29.557 45.3828C29.557 45.3516 29.557 45.3203 29.557 45.2891L28.9954 32.2766C29.0523 30.1516 31.242 28.4203 33.908 28.4141L33.9222 26.5391ZM33.9222 26.5391C33.9151 26.5391 33.9009 26.5391 33.8937 26.5391C30.0547 26.5516 26.9052 29.1328 26.8555 32.2953L27.4242 45.3641C27.3816 48.5203 29.7063 51.0766 33.5241 51.0766C33.5312 51.0766 33.5454 51.0766 33.5525 51.0766C37.3916 51.0641 39.8016 48.4828 39.8443 45.3203L40.7685 32.2516C40.8183 29.0891 37.7541 26.5391 33.9222 26.5391Z" fill="#EDA600"/>
<path d="M21.3235 49.2805C18.5153 49.2805 16.3896 47.5117 16.0483 44.8742L13.8942 34.1242C13.7449 32.943 14.1572 31.7117 15.0672 30.718C16.0696 29.6242 17.5982 28.9117 19.2689 28.7617C19.4893 28.743 19.7168 28.7305 19.9371 28.7305C23.0368 28.7305 25.6175 30.6242 25.9446 33.1367L26.5915 43.7742C26.7906 45.2992 26.3925 46.6617 25.4753 47.6617C24.6435 48.568 23.435 49.118 21.9846 49.2492C21.7571 49.2742 21.5368 49.2805 21.3235 49.2805Z" fill="url(#paint3_radial_118_974)"/>
<path d="M19.9304 29.6797C22.4613 29.6797 24.5799 31.1922 24.8714 33.2047L25.5255 43.8359C25.5255 43.8734 25.5326 43.9109 25.5397 43.9484C25.6961 45.1672 25.3833 46.2797 24.6439 47.0859C23.997 47.7922 23.0372 48.2234 21.8713 48.3234C21.6864 48.3422 21.5016 48.3484 21.3238 48.3484C19.0488 48.3484 17.3923 46.9484 17.108 44.7734C17.1009 44.7359 17.0938 44.6984 17.0866 44.6609L14.9538 34.0297C14.8401 33.0609 15.1742 32.0984 15.8923 31.3109C16.717 30.4109 17.9824 29.8234 19.3688 29.6984C19.5607 29.6859 19.7456 29.6797 19.9304 29.6797ZM19.9304 27.8047C19.6745 27.8047 19.4185 27.8172 19.1555 27.8359C15.2453 28.1859 12.4158 31.0734 12.8423 34.2922L14.9894 44.9859C15.3804 47.9922 17.8189 50.2172 21.3238 50.2172C21.5727 50.2172 21.8286 50.2047 22.0845 50.1859C25.9947 49.8359 28.0777 46.9484 27.6583 43.7297L27.0042 33.0359C26.6061 30.0297 23.5206 27.8047 19.9304 27.8047Z" fill="#EDA600"/>
<path d="M71.9424 38.0067C77.2745 38.8692 81.3624 41.8317 80.7936 45.2317C80.3599 47.8129 78.1631 49.7254 73.9971 49.2379C66.8166 48.3942 61.2215 51.3129 58.8399 55.7067C55.861 61.2067 51.8158 66.0942 50.0456 66.6754C42.4101 69.1879 35.5922 64.3379 36.616 56.5629C37.7037 48.2817 48.7943 42.4754 51.6878 41.2567C55.8539 39.4942 63.5889 36.6629 71.9424 38.0067Z" fill="url(#paint4_radial_118_974)"/>
<path d="M71.9423 38.0062C70.4209 37.7625 68.9209 37.6562 67.4634 37.6562C60.8944 37.6562 55.1002 39.8125 51.6806 41.2563C50.3796 41.8063 45.8865 44.3812 42.9219 46.6C44.7845 46.9875 51.6451 43.35 52.6048 42.9437C54.6026 42.1 60.6811 39.5312 67.4634 39.5312C68.8569 39.5312 70.2361 39.6375 71.5584 39.85C75.9165 40.55 79.0446 42.7938 78.682 44.9563C78.4048 46.6063 77.253 47.4375 75.2482 47.4375C74.9425 47.4375 74.6155 47.4188 74.2742 47.375C73.3642 47.2688 72.4471 47.2125 71.5584 47.2125C65.0889 47.2125 59.4725 50.1563 56.906 54.8938C55.9462 56.6625 54.9367 58.4187 53.7566 60.0875C53.1949 60.8812 52.612 61.6563 51.9223 62.3688C50.9697 63.35 49.9673 64.2938 48.9506 65.225C48.4387 65.6938 47.9269 66.1562 47.415 66.6187C47.152 66.8562 46.9031 67.125 46.6187 67.3375C46.4908 67.4312 46.1069 67.7938 45.9647 67.8C46.9458 67.7438 50.4365 70.1438 58.8255 55.6938C61.0508 51.8625 65.551 49.0812 71.5513 49.0812C72.3405 49.0812 73.1509 49.1313 73.9827 49.225C74.4235 49.275 74.843 49.3 75.234 49.3C78.5896 49.3 80.3883 47.525 80.7793 45.2187C81.3623 41.8375 77.2744 38.8687 71.9423 38.0062Z" fill="#EDA600"/>
<defs>
<radialGradient id="paint0_radial_118_974" cx="0" cy="0" r="1" gradientUnits="userSpaceOnUse" gradientTransform="translate(28.7656 4.03699) rotate(90.1435) scale(71.5061 36.2843)">
<stop stop-color="#FFB300"/>
<stop offset="0.7843" stop-color="#FFCA28"/>
<stop offset="1" stop-color="#FFB300"/>
</radialGradient>
<radialGradient id="paint1_radial_118_974" cx="0" cy="0" r="1" gradientUnits="userSpaceOnUse" gradientTransform="translate(28.8698 44.4066) scale(21.0091 11.259)">
<stop offset="0.6104" stop-color="#F9A825"/>
<stop offset="0.8171" stop-color="#FDAF0F" stop-opacity="0.4694"/>
<stop offset="1" stop-color="#FFB300" stop-opacity="0"/>
</radialGradient>
<radialGradient id="paint2_radial_118_974" cx="0" cy="0" r="1" gradientUnits="userSpaceOnUse" gradientTransform="translate(33.829 30.8105) rotate(90.4447) scale(18.2018 7.06521)">
<stop offset="0.5993" stop-color="#FFCA28"/>
<stop offset="1" stop-color="#FFB300"/>
</radialGradient>
<radialGradient id="paint3_radial_118_974" cx="0" cy="0" r="1" gradientUnits="userSpaceOnUse" gradientTransform="translate(19.7065 34.0192) rotate(81.8274) scale(13.6327 6.23843)">
<stop offset="0.5993" stop-color="#FFCA28"/>
<stop offset="1" stop-color="#FFB300"/>
</radialGradient>
<radialGradient id="paint4_radial_118_974" cx="0" cy="0" r="1" gradientUnits="userSpaceOnUse" gradientTransform="translate(51.1413 29.7948) rotate(165.477) scale(46.6266 44.3651)">
<stop offset="0.4647" stop-color="#FFCA28"/>
<stop offset="1" stop-color="#FFB300"/>
</radialGradient>
</defs>
</svg>
