<svg width="100" height="53" viewBox="0 0 100 53" fill="none" xmlns="http://www.w3.org/2000/svg">
<path d="M0 0H100V52.6317H0V0Z" fill="white"/>
<path d="M0 0H100V4.077H0V0ZM0 8.154H100V12.231H0V8.154ZM0 16.3077H100V20.3847H0V16.3077ZM0 24.4617H100V28.5387H0V24.4617ZM0 32.6153H100V36.6923H0V32.6153ZM0 40.7693H100V44.8463H0V40.7693ZM0 48.923H100V53H0V48.923Z" fill="#B22234"/>
<path d="M0 0H40V28.34H0V0Z" fill="#3C3B6E"/>
<path d="M1.87891 2.29969L2.83191 2.99202L2.46791 4.11235L3.42057 3.42002L4.37357 4.11235L4.00957 2.99202L4.96224 2.29969H3.78457L3.42057 1.17969L3.05657 2.29969H1.87891ZM8.51057 2.29969L9.46324 2.99202L9.09924 4.11235L10.0522 3.42002L11.0052 4.11235L10.6412 2.99202L11.5939 2.29969H10.4162L10.0522 1.17969L9.68824 2.29969H8.51057ZM15.1422 2.29969L16.0949 2.99202L15.7309 4.11235L16.6839 3.42002L17.6366 4.11235L17.2726 2.99202L18.2256 2.29969H17.0479L16.6839 1.17969L16.3199 2.29969H15.1422ZM21.7739 2.29969L22.7266 2.99202L22.3626 4.11235L23.3156 3.42002L24.2682 4.11235L23.9042 2.99202L24.8572 2.29969H23.6792L23.3156 1.17969L22.9516 2.29969H21.7739ZM28.4052 2.29969L29.3582 2.99202L28.9942 4.11235L29.9469 3.42002L30.8999 4.11235L30.5359 2.99202L31.4886 2.29969H30.3109L29.9469 1.17969L29.5829 2.29969H28.4052ZM35.0369 2.29969L35.9896 2.99202L35.6256 4.11235L36.5786 3.42002L37.5312 4.11235L37.1672 2.99202L38.1202 2.29969H36.9426L36.5786 1.17969L36.2146 2.29969H35.0369ZM5.19457 5.14202L6.14757 5.83435L5.78357 6.95435L6.73657 6.26202L7.68924 6.95435L7.32524 5.83435L8.27824 5.14202H7.10024L6.73657 4.02169L6.37257 5.14202H5.19457ZM11.8262 5.14202L12.7792 5.83435L12.4152 6.95435L13.3679 6.26202L14.3209 6.95435L13.9569 5.83435L14.9096 5.14202H13.7319L13.3679 4.02169L13.0039 5.14202H11.8262ZM18.4579 5.14202L19.4109 5.83435L19.0469 6.95435L19.9996 6.26202L20.9526 6.95435L20.5886 5.83435L21.5412 5.14202H20.3636L19.9996 4.02169L19.6356 5.14202H18.4579ZM25.0896 5.14202L26.0422 5.83435L25.6782 6.95435L26.6312 6.26202L27.5839 6.95435L27.2199 5.83435L28.1729 5.14202H26.9952L26.6312 4.02169L26.2672 5.14202H25.0896ZM31.7209 5.14202L32.6739 5.83435L32.3099 6.95435L33.2626 6.26202L34.2156 6.95435L33.8516 5.83435L34.8042 5.14202H33.6266L33.2626 4.02169L32.8989 5.14202H31.7209ZM1.87891 7.98402L2.83191 8.67635L2.46791 9.79669L3.42057 9.10435L4.37357 9.79669L4.00957 8.67635L4.96224 7.98402H3.78457L3.42057 6.86402L3.05657 7.98402H1.87891ZM8.51057 7.98402L9.46324 8.67635L9.09924 9.79669L10.0522 9.10435L11.0052 9.79669L10.6412 8.67635L11.5939 7.98402H10.4162L10.0522 6.86402L9.68824 7.98402H8.51057ZM15.1422 7.98402L16.0949 8.67635L15.7309 9.79669L16.6839 9.10435L17.6366 9.79669L17.2726 8.67635L18.2256 7.98402H17.0479L16.6839 6.86402L16.3199 7.98402H15.1422ZM21.7739 7.98402L22.7266 8.67635L22.3626 9.79669L23.3156 9.10435L24.2682 9.79669L23.9042 8.67635L24.8572 7.98402H23.6792L23.3156 6.86402L22.9516 7.98402H21.7739ZM28.4052 7.98402L29.3582 8.67635L28.9942 9.79669L29.9469 9.10435L30.8999 9.79669L30.5359 8.67635L31.4886 7.98402H30.3109L29.9469 6.86402L29.5829 7.98402H28.4052ZM35.0369 7.98402L35.9896 8.67635L35.6256 9.79669L36.5786 9.10435L37.5312 9.79669L37.1672 8.67635L38.1202 7.98402H36.9426L36.5786 6.86402L36.2146 7.98402H35.0369ZM5.27657 10.8357L6.22924 11.528L5.86557 12.648L6.81824 11.9557L7.77124 12.648L7.40724 11.5277L8.35991 10.8357H7.18224L6.81824 9.71535L6.45424 10.8357H5.27657ZM11.9082 10.8357L12.8609 11.528L12.4969 12.648L13.4499 11.9557L14.4026 12.648L14.0386 11.5277L14.9916 10.8357H13.8139L13.4499 9.71535L13.0859 10.8357H11.9082ZM18.5399 10.8357L19.4926 11.528L19.1286 12.648L20.0816 11.9557L21.0342 12.648L20.6702 11.5277L21.6232 10.8357H20.4452L20.0816 9.71535L19.7176 10.8357H18.5399ZM25.1712 10.8357L26.1242 11.528L25.7602 12.648L26.7129 11.9557L27.6659 12.648L27.3019 11.5277L28.2546 10.8357H27.0769L26.7129 9.71535L26.3489 10.8357H25.1712ZM31.8029 10.8357L32.7556 11.528L32.3916 12.648L33.3446 11.9557L34.2972 12.648L33.9332 11.5277L34.8862 10.8357H33.7086L33.3446 9.71535L32.9806 10.8357H31.8029ZM1.97957 13.654L2.93257 14.346L2.56857 15.4664L3.52124 14.774L4.47424 15.4664L4.11024 14.346L5.06291 13.654H3.88524L3.52124 12.5337L3.15724 13.654H1.97957ZM8.61124 13.654L9.56391 14.346L9.19991 15.4664L10.1529 14.774L11.1056 15.4664L10.7419 14.346L11.6946 13.654H10.5169L10.1529 12.5337L9.78891 13.654H8.61124ZM15.2429 13.654L16.1956 14.346L15.8316 15.4664L16.7846 14.774L17.7372 15.4664L17.3732 14.346L18.3262 13.654H17.1486L16.7846 12.5337L16.4206 13.654H15.2429ZM21.8742 13.654L22.8272 14.346L22.4632 15.4664L23.4159 14.774L24.3689 15.4664L24.0049 14.346L24.9579 13.654H23.7799L23.4159 12.5337L23.0522 13.654H21.8742ZM28.5059 13.654L29.4586 14.346L29.0949 15.4664L30.0476 14.774L31.0006 15.4664L30.6366 14.346L31.5892 13.654H30.4116L30.0476 12.5337L29.6836 13.654H28.5059ZM35.1376 13.654L36.0902 14.346L35.7262 15.4664L36.6792 14.774L37.6319 15.4664L37.2679 14.346L38.2209 13.654H37.0432L36.6792 12.5337L36.3152 13.654H35.1376ZM2.04191 19.248L2.99457 19.9404L2.63057 21.0607L3.58357 20.3684L4.53624 21.0607L4.17224 19.9404L5.12524 19.248H3.94757L3.58357 18.128L3.21957 19.248H2.04191ZM8.67324 19.248L9.62624 19.9404L9.26224 21.0607L10.2149 20.3684L11.1679 21.0607L10.8039 19.9404L11.7566 19.248H10.5789L10.2149 18.128L9.85091 19.248H8.67324ZM15.3049 19.248L16.2576 19.9404L15.8939 21.0607L16.8466 20.3684L17.7996 21.0607L17.4356 19.9404L18.3882 19.248H17.2106L16.8466 18.128L16.4826 19.248H15.3049ZM21.9366 19.248L22.8892 19.9404L22.5252 21.0607L23.4782 20.3684L24.4309 21.0607L24.0672 19.9404L25.0199 19.248H23.8422L23.4782 18.128L23.1142 19.248H21.9366ZM28.5679 19.248L29.5209 19.9404L29.1569 21.0607L30.1096 20.3684L31.0626 21.0607L30.6986 19.9404L31.6516 19.248H30.4736L30.1096 18.128L29.7459 19.248H28.5679ZM35.1996 19.248L36.1522 19.9404L35.7886 21.0607L36.7412 20.3684L37.6942 21.0607L37.3302 19.9404L38.2829 19.248H37.1052L36.7412 18.128L36.3772 19.248H35.1996ZM1.96091 24.908L2.91357 25.6004L2.54957 26.7207L3.50257 26.0284L4.45524 26.7207L4.09124 25.6004L5.04424 24.908H3.86624L3.50257 23.788L3.13857 24.908H1.96091ZM8.59224 24.908L9.54524 25.6004L9.18124 26.7207L10.1339 26.0284L11.0869 26.7207L10.7229 25.6004L11.6756 24.908H10.4979L10.1339 23.788L9.76991 24.908H8.59224ZM15.2239 24.908L16.1766 25.6004L15.8129 26.7207L16.7656 26.0284L17.7186 26.7207L17.3546 25.6004L18.3072 24.908H17.1296L16.7656 23.788L16.4016 24.908H15.2239ZM21.8556 24.908L22.8082 25.6004L22.4442 26.7207L23.3972 26.0284L24.3499 26.7207L23.9862 25.6004L24.9389 24.908H23.7612L23.3972 23.788L23.0332 24.908H21.8556ZM28.4869 24.908L29.4399 25.6004L29.0759 26.7207L30.0286 26.0284L30.9816 26.7207L30.6176 25.6004L31.5706 24.908H30.3926L30.0286 23.788L29.6649 24.908H28.4869ZM35.1186 24.908L36.0712 25.6004L35.7076 26.7207L36.6602 26.0284L37.6132 26.7207L37.2492 25.6004L38.2019 24.908H37.0242L36.6602 23.788L36.2962 24.908H35.1186ZM5.29624 16.423L6.24891 17.1154L5.88524 18.2354L6.83791 17.543L7.79091 18.2354L7.42691 17.1154L8.37957 16.423H7.20191L6.83791 15.3027L6.47391 16.423H5.29624ZM11.9279 16.423L12.8806 17.1154L12.5166 18.2354L13.4696 17.543L14.4222 18.2354L14.0586 17.1154L15.0112 16.423H13.8336L13.4696 15.3027L13.1056 16.423H11.9279ZM18.5596 16.423L19.5122 17.1154L19.1482 18.2354L20.1012 17.543L21.0539 18.2354L20.6899 17.1154L21.6429 16.423H20.4652L20.1012 15.3027L19.7372 16.423H18.5596ZM25.1909 16.423L26.1439 17.1154L25.7799 18.2354L26.7326 17.543L27.6856 18.2354L27.3216 17.1154L28.2742 16.423H27.0966L26.7326 15.3027L26.3686 16.423H25.1909ZM31.8226 16.423L32.7752 17.1154L32.4112 18.2354L33.3642 17.543L34.3169 18.2354L33.9532 17.1154L34.9059 16.423H33.7282L33.3642 15.3027L33.0002 16.423H31.8226ZM5.27657 22.074L6.22957 22.7664L5.86557 23.8867L6.81824 23.1944L7.77124 23.8867L7.40724 22.7664L8.35991 22.074H7.18224L6.81824 20.954L6.45424 22.074H5.27657ZM11.9082 22.074L12.8609 22.7664L12.4969 23.8867L13.4499 23.1944L14.4029 23.8867L14.0389 22.7664L14.9916 22.074H13.8139L13.4499 20.954L13.0859 22.074H11.9082ZM18.5399 22.074L19.4926 22.7664L19.1286 23.8867L20.0816 23.1944L21.0342 23.8867L20.6702 22.7664L21.6232 22.074H20.4456L20.0816 20.954L19.7176 22.074H18.5399ZM25.1712 22.074L26.1242 22.7664L25.7602 23.8867L26.7129 23.1944L27.6659 23.8867L27.3019 22.7664L28.2546 22.074H27.0769L26.7129 20.954L26.3489 22.074H25.1712ZM31.8029 22.074L32.7556 22.7664L32.3916 23.8867L33.3446 23.1944L34.2972 23.8867L33.9336 22.7664L34.8862 22.074H33.7086L33.3446 20.954L32.9806 22.074H31.8029Z" fill="white"/>
</svg>
