<svg width="64" height="64" viewBox="0 0 64 64" fill="none" xmlns="http://www.w3.org/2000/svg">
<path d="M57.0543 0H6.94574C3.10971 0 0 3.10971 0 6.94574V57.0543C0 60.8903 3.10971 64 6.94574 64H57.0543C60.8903 64 64 60.8903 64 57.0543V6.94574C64 3.10971 60.8903 0 57.0543 0Z" fill="#3B5999"/>
<path fill-rule="evenodd" clip-rule="evenodd" d="M20.8369 26.2959H27.5346V25.0556C27.5346 23.0711 27.2865 20.5905 27.5346 18.606C27.7826 13.8928 30.2633 10.916 36.7129 10.668L43.1625 10.916V17.8618C40.4338 17.8618 35.7206 16.8695 35.2245 20.3424V26.2959H42.6664L41.9222 33.9858H35.2245V53.3346H27.5346V33.9858L20.8369 33.7377V26.2959Z" fill="white"/>
<path fill-rule="evenodd" clip-rule="evenodd" d="M64.0003 31.7513L43.1631 10.9141V17.8598C40.4344 17.8598 35.7212 16.8676 35.2251 20.3404V26.2939H42.6669L41.9228 33.9838H35.2251V53.3327H27.5352L38.2018 63.9993H57.0545L64.0003 57.0536V31.7513Z" fill="#30487C"/>
</svg>
