<svg width="64" height="64" viewBox="0 0 64 64" fill="none" xmlns="http://www.w3.org/2000/svg">
<g clip-path="url(#clip0_118_138)">
<path d="M52.8 0H11.2C5.01441 0 0 5.01441 0 11.2V52.8C0 58.9856 5.01441 64 11.2 64H52.8C58.9856 64 64 58.9856 64 52.8V11.2C64 5.01441 58.9856 0 52.8 0Z" fill="#4489C8"/>
<path d="M9.61988 19.77H17.2999C17.4604 19.7698 17.6173 19.8184 17.7495 19.9095C17.8817 20.0006 17.983 20.1299 18.0399 20.28C18.8899 22.47 22.4199 31.04 25.6499 31.74C28.0499 31.74 27.1999 20.34 24.1499 20.34C23.3499 20.34 25.5699 18.92 25.7199 18.86C28.5543 18.0831 31.5455 18.0831 34.3799 18.86C35.9099 19.5 36.1699 21.29 36.2099 22.81C36.2499 24.33 34.5099 30.81 36.7999 31.51C39.7999 32.43 43.6599 23.02 44.5599 20.71C44.6184 20.5618 44.7204 20.4347 44.8524 20.3454C44.9845 20.2562 45.1405 20.209 45.2999 20.21H53.8499C53.982 20.2096 54.1122 20.2419 54.2288 20.3041C54.3454 20.3662 54.4447 20.4563 54.518 20.5663C54.5913 20.6762 54.6362 20.8026 54.6488 20.9341C54.6613 21.0656 54.6411 21.1982 54.5899 21.32C52.8287 25.3378 50.7172 29.1926 48.2799 32.84C48.0727 33.141 47.9754 33.5042 48.0046 33.8684C48.0337 34.2327 48.1874 34.5758 48.4399 34.84C50.9999 37.58 57.9999 45.34 53.9999 45.34H45.3699C45.1468 45.3406 44.9262 45.2936 44.7228 45.2022C44.5193 45.1108 44.3376 44.9771 44.1899 44.81C42.8499 43.33 38.9499 39.21 37.1899 39.54C35.7299 39.81 35.5899 42.29 35.6599 43.91C35.6819 44.328 35.5393 44.7379 35.2627 45.052C34.986 45.3661 34.5973 45.5592 34.1799 45.59C32.6499 45.68 30.5599 45.72 30.3699 45.71C24.2699 45.32 20.6599 41.25 17.2099 36.71C13.596 31.8968 10.7769 26.5355 8.85988 20.83C8.8207 20.7093 8.81043 20.5811 8.82991 20.4556C8.84939 20.3302 8.89807 20.2111 8.97203 20.108C9.04599 20.0048 9.14315 19.9205 9.25568 19.8618C9.36821 19.8031 9.49297 19.7717 9.61988 19.77Z" fill="white"/>
</g>
<defs>
<clipPath id="clip0_118_138">
<rect width="64" height="64" fill="white"/>
</clipPath>
</defs>
</svg>
